<?xml version="1.0" encoding="UTF-8"?>
<svg width="71px" height="22px" viewBox="0 0 71 22" version="1.1" xmlns="http://www.w3.org/2000/svg" xmlns:xlink="http://www.w3.org/1999/xlink">
    <title>Ribbons / Promotion / New</title>
    <g id="Page-1" stroke="none" stroke-width="1" fill="none" fill-rule="evenodd">
        <g id="Group-5" transform="translate(-1078.000000, -740.000000)">
            <g id="Group-4">
                <g id="TRIP-OPTIONS" transform="translate(775.000000, 0.000000)">
                    <g id="BP-section" transform="translate(283.000000, 719.000000)">
                        <rect id="Rectangle" stroke="#D0DAE0" x="0" y="0" width="1010" height="160"></rect>
                        <g id="Ribbons-/-Promotion-/-New" transform="translate(20.000000, 21.000000)">
                            <g id="Ribbon">
                                <g id="Ribbon-Shape" transform="translate(35.500000, 11.000000) scale(-1, 1) translate(-35.500000, -11.000000) " fill="#00467F">
                                    <path d="M56,0 L56,22 L25,22 L25,0 L56,0 Z M71,0 L71,22 L56,22 L56,0 L71,0 Z M25,0 L25,21.999778 L24.8234513,21.9995945 C23.517432,21.9877586 14.7709085,21.6621564 9.72843902,14.272856 L9.72843902,14.272856 L1.73472348e-16,0 L25,0 Z" id="Combined-Shape"></path>
                                </g>
                                <text id="NEW" font-family="AmericanSansMedium, AmericanSans Medium" font-size="14" font-weight="normal" line-spacing="20" fill="#FFFFFF">
                                    <tspan x="15" y="15">NEW</tspan>
                                </text>
                            </g>
                        </g>
                    </g>
                </g>
            </g>
        </g>
    </g>
</svg>