<?xml version="1.0" encoding="utf-8"?>
<!-- Generator: Adobe Illustrator 24.3.0, SVG Export Plug-In . SVG Version: 6.00 Build 0)  -->
<svg version="1.1" id="Layer_1" xmlns="http://www.w3.org/2000/svg" xmlns:xlink="http://www.w3.org/1999/xlink" x="0px" y="0px"
	 viewBox="0 0 1600 512" style="enable-background:new 0 0 1600 512;" xml:space="preserve">
<style type="text/css">
	.st0{fill:#005288;}
</style>
<g>
	<g>
		<polygon class="st0" points="116.8,408.5 116.8,197.4 45.3,197.4 46.2,166.5 221,166.5 221.7,197.4 150.2,197.4 150.2,408.5 		"/>
		<path class="st0" d="M292.3,413c-27.6,0-51.3-7.1-70.6-18.4l5.1-30c19.6,11.9,40.4,18.4,65.1,18.4c34,0,50.7-15.5,50.7-41.3
			c0-54.9-119-31-119-111.3c0-38.1,24.4-67.8,79.2-67.8c23.4,0,46.2,4.5,63.5,12.9l-4.5,28.7c-18.9-7.4-37.2-11.6-57.4-11.6
			c-36.2,0-49.1,16.8-49.1,35.8c0,52.6,119,28.1,119,111C374.4,384.9,345.2,413,292.3,413"/>
		<path class="st0" d="M529.3,350.7H423.5l-19.2,57.8h-35.3l88.5-242h39.1l88.9,242h-36.9L529.3,350.7z M468.7,215.8L433.1,322H520
			l-35-106.2l-7.4-25.2h-1L468.7,215.8z"/>
		<path class="st0" d="M757.1,317.8h-47.2v90.7h-32.7v-242h79.9c59,0,84,23.2,84,75.8C841.1,292,816.7,317.8,757.1,317.8
			 M757.1,195.2h-47.2V290h47.2c34,0,50.4-10.6,50.4-47.8C807.4,207.1,792,195.2,757.1,195.2"/>
		<path class="st0" d="M861,408.4v-191l24.4-1.6l2.6,41.3h0.6c11.9-27.8,32.7-43.9,58.7-43.9c7.1,0,13.8,1,18.9,2.6l-1.9,31
			c-5.8-1.9-12.2-2.6-18.9-2.6c-29.8,0-53.9,25.5-53.9,66.8v97.4H861z"/>
		<path class="st0" d="M967.5,307.1c0-60.3,26.3-94.2,78.9-94.2c45.5,0,75.4,27.1,75.4,88.7c0,4.8-0.3,10.6-0.6,14.8H998.6
			c1.6,50.7,20.2,68.1,61.3,68.1c19.2,0,35.6-4.2,52-12.3l3.5,25.8c-16,8.7-35.9,14.2-59,14.2C993.5,412.3,967.5,379.1,967.5,307.1
			 M1093.9,295.5c-0.6-40.7-19.6-56.1-47.2-56.1c-32.4,0-46.8,18.1-48.8,56.1H1093.9z"/>
		<path class="st0" d="M1554.7,83c0,7.5-6,13.4-13.6,13.4c-7.6,0-13.6-5.9-13.6-13.4c0-7.5,6-13.3,13.7-13.3
			C1548.8,69.7,1554.7,75.5,1554.7,83 M1530.9,83c0,5.9,4.4,10.6,10.3,10.6c5.7,0.1,10.1-4.7,10.1-10.6c0-5.9-4.4-10.7-10.3-10.7
			C1535.4,72.4,1530.9,77.2,1530.9,83 M1539.1,89.9h-3.1V76.6c1.2-0.2,2.9-0.4,5.1-0.4c2.5,0,3.6,0.4,4.5,1.1
			c0.8,0.6,1.4,1.5,1.4,2.8c0,1.6-1.2,2.7-2.7,3.2v0.2c1.3,0.4,1.9,1.5,2.3,3.2c0.4,2,0.7,2.8,1,3.2h-3.2c-0.4-0.5-0.6-1.6-1.1-3.2
			c-0.2-1.4-1-2-2.7-2h-1.5V89.9z M1539.2,82.4h1.5c1.7,0,3.1-0.6,3.1-1.9c0-1.2-0.9-2-2.8-2c-0.8,0-1.4,0.1-1.7,0.2V82.4z"/>
	</g>
	
		<image style="overflow:visible;" width="1524" height="1821" xlink:href="../../Downloads/TSA_PreCheck_logo/Links/clipart2245490.png"  transform="matrix(0.2399 8.101945e-03 -8.101945e-03 0.2399 1153.0037 31.4309)">
	</image>
</g>
</svg>
